<svg width="24" height="24" viewBox="0 0 24 24" fill="none" xmlns="http://www.w3.org/2000/svg">
<path d="M0.498527 6.89409C0.354224 6.93813 0.227886 7.02737 0.138133 7.14864C0.0483798 7.26991 -3.93128e-05 7.41681 1.17235e-05 7.56769C0.000116172 7.71846 0.0486963 7.8652 0.13858 7.98624C0.228463 8.10729 0.354886 8.19623 0.499184 8.23992L8.74825 10.7951L22.8907 0.10575L22.9706 0L0.498527 6.89409ZM8.77281 12.5389L7.71203 15.3838C7.66462 15.51 7.65462 15.6472 7.68324 15.779C7.71185 15.9108 7.77787 16.0315 7.87337 16.1267C8.07034 16.3247 8.36354 16.3831 8.61634 16.2881L11.4616 15.2271L19.7837 4.2165L8.77281 12.5389ZM23.8944 1.10944L13.2051 15.2522L15.7602 23.5008C15.8039 23.6451 15.8928 23.7715 16.0139 23.8614C16.1349 23.9513 16.2817 23.9998 16.4324 24H16.4331C16.7428 24 17.0154 23.7974 17.106 23.5014L24 1.02961L23.8944 1.10944ZM5.74407 14.279C5.46943 14.0043 5.0245 14.0043 4.74981 14.279L0.531059 18.4977C0.256418 18.7724 0.256418 19.2173 0.531059 19.492C0.805746 19.7667 1.25064 19.7667 1.52532 19.492L5.74407 15.2732C6.01871 14.9986 6.01871 14.5536 5.74407 14.279ZM9.72109 18.256C9.44645 17.9814 9.00151 17.9813 8.72687 18.256L4.50812 22.4748C4.23348 22.7494 4.23348 23.1944 4.50812 23.469C4.57332 23.5344 4.65081 23.5863 4.73612 23.6217C4.82143 23.657 4.91288 23.6752 5.00523 23.6751C5.09758 23.6752 5.18904 23.657 5.27435 23.6217C5.35966 23.5863 5.43714 23.5344 5.50234 23.469L9.72109 19.2503C9.99573 18.9757 9.99573 18.5307 9.72109 18.256ZM6.12212 17.8779C5.84748 17.6032 5.4025 17.6032 5.12786 17.8779L0.20598 22.7998C-0.0686602 23.0744 -0.0686602 23.5194 0.20598 23.794C0.343324 23.9313 0.52323 24 0.703137 24C0.883043 24 1.06295 23.9313 1.20025 23.794L6.12212 18.8721C6.39681 18.5975 6.39681 18.1525 6.12212 17.8779Z" fill="#0F363D"/>
</svg>
