<svg width="24" height="24" viewBox="0 0 24 24" fill="none" xmlns="http://www.w3.org/2000/svg">
<g clip-path="url(#clip0_33_1256)">
<path d="M6.89409 23.5015C6.93813 23.6458 7.02737 23.7721 7.14864 23.8619C7.26991 23.9516 7.41681 24 7.56769 24C7.71846 23.9999 7.8652 23.9513 7.98624 23.8614C8.10729 23.7715 8.19623 23.6451 8.23992 23.5008L10.7951 15.2518L0.10575 1.10929L0 1.02936L6.89409 23.5015ZM12.5389 15.2272L15.3838 16.288C15.51 16.3354 15.6472 16.3454 15.779 16.3168C15.9108 16.2881 16.0315 16.2221 16.1267 16.1266C16.3247 15.9297 16.3831 15.6365 16.2881 15.3837L15.2271 12.5384L4.2165 4.21635L12.5389 15.2272ZM1.10944 0.105553L15.2522 10.7949L23.5008 8.23982C23.6451 8.19612 23.7715 8.10718 23.8614 7.98614C23.9513 7.86509 23.9998 7.71835 24 7.56758V7.56688C24 7.25722 23.7974 6.9846 23.5014 6.89399L1.02961 -1.14441e-05L1.10944 0.105553ZM14.279 18.2559C14.0043 18.5306 14.0043 18.9755 14.279 19.2502L18.4977 23.4689C18.7724 23.7436 19.2173 23.7436 19.492 23.4689C19.7667 23.1943 19.7667 22.7494 19.492 22.4747L15.2732 18.2559C14.9986 17.9813 14.5536 17.9813 14.279 18.2559ZM18.256 14.2789C17.9814 14.5536 17.9813 14.9985 18.256 15.2731L22.4748 19.4919C22.7494 19.7665 23.1944 19.7665 23.469 19.4919C23.5344 19.4267 23.5863 19.3492 23.6217 19.2639C23.657 19.1786 23.6752 19.0871 23.6751 18.9948C23.6752 18.9024 23.657 18.811 23.6217 18.7257C23.5863 18.6403 23.5344 18.5629 23.469 18.4977L19.2503 14.2789C18.9757 14.0043 18.5307 14.0043 18.256 14.2789ZM17.8779 17.8779C17.6032 18.1525 17.6032 18.5975 17.8779 18.8721L22.7998 23.794C23.0744 24.0687 23.5194 24.0687 23.794 23.794C23.9313 23.6567 24 23.4768 24 23.2969C24 23.117 23.9313 22.9371 23.794 22.7998L18.8721 17.8779C18.5975 17.6032 18.1525 17.6032 17.8779 17.8779Z" fill="#0F363D"/>
</g>
<defs>
<clipPath id="clip0_33_1256">
<rect width="24" height="24" fill="white" transform="matrix(0 -1 1 0 0 24)"/>
</clipPath>
</defs>
</svg>
